<svg id="Ebene_2" data-name="Ebene 2" xmlns="http://www.w3.org/2000/svg" viewBox="0 0 1000 1000"><defs><style>.cls-1{stroke:#000;stroke-miterlimit:10;}</style></defs><path class="cls-1" d="M623.22,283.21l-24.61-28.36L497.44,342.64h0l-12.18,10.9-.44.3-23,15.81.29.15c-25.62,10.16-43.7,34.77-43.7,63.54a67.21,67.21,0,0,0,12.29,38.78c-47,2.22-84.29,36.9-84.29,79.36,0,30.94,19.84,57.73,48.78,70.84l2.42.79,2.5.65,1.1.25,1.2.25,1,.25.8.25.9.25.9.3.9.2h10s13.88-7.56,14.62-14.48l0-.09v-.11c0-.42.07-.85.07-1.28s0-.86-.07-1.29v-.19l0-.24c-.05-.4-.12-.79-.2-1.18l-.06-.32-.06-.2c-1.74-6.88-8.65-12.28-17.38-13.55A46.78,46.78,0,0,1,380,565.9a42.94,42.94,0,0,1-.18-38.55,46.65,46.65,0,0,1,42.64-27.91l.93,0c1.37-.1,2.75-.16,4.15-.16,1,0,2,0,3,.08a11.38,11.38,0,0,1,2.43-.26,12.13,12.13,0,0,1,1.48.1l36,.37.72.19.22.05h0a71.09,71.09,0,0,0,50.19-6.2c.82.55,1.63,1.1,2.42,1.69l.87.08h5l3.75.21,3.5.2,3.35.4,4.1.9,2.75.7,2.55.75,2.25.9,3.75,1.7,4.05,2,2.78,2.83a36.35,36.35,0,0,1,8.7,47.95,53.17,53.17,0,0,1-18.71,22.26c-1.46,1.13-4.24,3-4,3s-22.66,10.23-22.66,10.23l-3.13,3.18-1.12,2h0l-.23.43-.11.4-1.81,4.39-.54,2-.06.44.59,1.64.23.66,1.53,1.5-.67-1.61h0l.67,1.61,2.3,2.92,1.35,1.17,2.22,1.5,2.35,1.2,2.77,1,3.62.92,3.88.6,6.7.56h15.8l3-.87.57-.22,6-2.46.32-.15,2.74-1.43,0,.1c24-12.4,40.36-36.64,40.36-64.52,0-38.38-31-69.85-70.38-73a67.28,67.28,0,0,0,13.26-40.15c0-30.33-20.09-56-47.93-65.06V353.73l10-5.75,21-15.48.55-.7.2.15.51-.37.36.5-.46-.8,76.2-44Z"/></svg>